<svg width="42" height="42" viewBox="0 0 42 42" fill="none" xmlns="http://www.w3.org/2000/svg">
<path fill-rule="evenodd" clip-rule="evenodd" d="M18.618 13.3708C19.6974 11.9162 20.0844 10.3832 18.8637 9.02997C16.1242 5.19669 14.2818 2.82619 13.1262 1.68462C10.9292 -0.485662 7.31507 -0.192098 5.41231 1.68276C4.39032 2.68977 4.04433 3.03558 2.99497 4.10143C-2.85014 9.94968 0.714508 22.3127 10.1906 31.7981C19.6646 41.2814 32.0264 44.848 37.8838 38.9874C38.8521 38.0539 39.672 37.2335 40.3186 36.5501C42.1832 34.5793 42.4663 31.1246 40.3063 28.8802C39.1989 27.7296 36.9384 25.9761 32.9439 23.1188C31.7204 22.0248 30.2698 22.2619 28.9399 23.1344C28.3002 23.5541 27.8346 23.9787 26.9555 24.8586L25.3592 26.4558C25.149 26.6662 22.294 25.2364 19.5226 22.4623C16.7497 19.6867 15.3209 16.8315 15.5301 16.6223C15.9617 16.1908 16.4942 15.658 17.1276 15.024C17.4065 14.7448 17.5398 14.6096 17.7108 14.4299C18.0671 14.0555 18.3621 13.7157 18.618 13.3708ZM28.3039 29.402L29.9005 27.8044C30.3843 27.3202 30.6979 27.0224 30.953 26.8171C34.4523 29.33 36.4789 30.9101 37.3066 31.7702C37.8036 32.2866 37.7264 33.2289 37.2944 33.6855C36.6965 34.3175 35.9197 35.0947 34.9664 36.0142C31.1788 39.8033 21.2001 36.9243 13.136 28.8523C5.06932 20.7778 2.19169 10.7975 5.95068 7.03645C6.99581 5.97498 7.32694 5.64401 8.33434 4.65139C8.71206 4.2792 9.74094 4.19563 10.2004 4.64953C11.0901 5.52843 12.7406 7.64167 15.1684 11.0236C15.0427 11.1797 14.8857 11.356 14.6947 11.5568C14.5545 11.7041 14.4377 11.8225 14.1823 12.0782C13.5494 12.7117 13.0174 13.244 12.5864 13.6749C9.87154 16.3896 12.1836 21.0098 16.5773 25.4078C20.9679 29.8028 25.5899 32.1174 28.3039 29.402Z" fill="black"/>
</svg>
