<svg width="28" height="28" viewBox="0 0 28 28" fill="none" xmlns="http://www.w3.org/2000/svg">
<path fill-rule="evenodd" clip-rule="evenodd" d="M13.75 27.5C6.15608 27.5 0 21.3439 0 13.75C0 6.15608 6.15608 0 13.75 0C21.3439 0 27.5 6.15608 27.5 13.75C27.5 21.3439 21.3439 27.5 13.75 27.5ZM13.75 25C19.9632 25 25 19.9632 25 13.75C25 7.5368 19.9632 2.5 13.75 2.5C7.5368 2.5 2.5 7.5368 2.5 13.75C2.5 19.9632 7.5368 25 13.75 25ZM12.1339 7.86612L10.3661 9.63389L14.4823 13.75L10.3661 17.8661L12.1339 19.6339L18.0178 13.75L12.1339 7.86612Z" fill="black"/>
</svg>
