<svg width="37" height="36" viewBox="0 0 37 36" fill="none" xmlns="http://www.w3.org/2000/svg">
<path d="M15.823 30.789C19.3336 30.7883 22.7431 29.6448 25.5086 27.5407L34.2033 36L37 33.279L28.3053 24.8198C30.4691 22.1289 31.6451 18.811 31.6459 15.3945C31.6459 6.90635 24.5473 0 15.823 0C7.09857 0 0 6.90635 0 15.3945C0 23.8826 7.09857 30.789 15.823 30.789ZM15.823 3.84862C22.3677 3.84862 27.6902 9.02694 27.6902 15.3945C27.6902 21.762 22.3677 26.9403 15.823 26.9403C9.27818 26.9403 3.95574 21.762 3.95574 15.3945C3.95574 9.02694 9.27818 3.84862 15.823 3.84862Z" fill="#000000"/>
</svg>
