<svg width="38" height="47" viewBox="0 0 38 47" fill="none" xmlns="http://www.w3.org/2000/svg">
<path fill-rule="evenodd" clip-rule="evenodd" d="M19 46.599L20.3703 45.4025C31.8931 35.341 37.75 26.5557 37.75 18.8333C37.75 7.89713 29.2145 0.083252 19 0.083252C8.78553 0.083252 0.25 7.89713 0.25 18.8333C0.25 26.5557 6.10689 35.341 17.6297 45.4025L19 46.599ZM19 41.0487C9.22211 32.2365 4.41667 24.7691 4.41667 18.8332C4.41667 10.2845 11.0086 4.24991 19 4.24991C26.9914 4.24991 33.5833 10.2845 33.5833 18.8332C33.5833 24.7691 28.7779 32.2365 19 41.0487ZM19.0001 8.4166C24.753 8.4166 29.4167 13.0803 29.4167 18.8333C29.4167 24.5862 24.753 29.2499 19.0001 29.2499C13.2471 29.2499 8.5834 24.5862 8.5834 18.8333C8.5834 13.0803 13.2471 8.4166 19.0001 8.4166ZM12.75 18.8333C12.75 15.3815 15.5482 12.5833 19 12.5833C22.4518 12.5833 25.25 15.3815 25.25 18.8333C25.25 22.285 22.4518 25.0833 19 25.0833C15.5482 25.0833 12.75 22.285 12.75 18.8333Z" fill="black"/>
</svg>
