<svg width="28" height="28" viewBox="0 0 28 28" fill="none" xmlns="http://www.w3.org/2000/svg">
<path fill-rule="evenodd" clip-rule="evenodd" d="M13.75 27.5C6.15608 27.5 0 21.3439 0 13.75C0 6.15608 6.15608 0 13.75 0C21.3439 0 27.5 6.15608 27.5 13.75C27.5 21.3439 21.3439 27.5 13.75 27.5ZM13.75 25C19.9632 25 25 19.9632 25 13.75C25 7.5368 19.9632 2.5 13.75 2.5C7.5368 2.5 2.5 7.5368 2.5 13.75C2.5 19.9632 7.5368 25 13.75 25ZM14.1161 19.6339L15.8839 17.8661L11.7677 13.75L15.8839 9.63389L14.1161 7.86612L8.23221 13.75L14.1161 19.6339Z" fill="black"/>
</svg>
