<svg width="46" height="46" viewBox="0 0 46 46" fill="none" xmlns="http://www.w3.org/2000/svg">
<path fill-rule="evenodd" clip-rule="evenodd" d="M23.0002 45.9166C10.3436 45.9166 0.0834961 35.6564 0.0834961 22.9999C0.0834961 10.3434 10.3436 0.083252 23.0002 0.083252C35.6567 0.083252 45.9168 10.3434 45.9168 22.9999C45.9168 35.6564 35.6567 45.9166 23.0002 45.9166ZM23.0001 41.7499C33.3555 41.7499 41.7501 33.3552 41.7501 22.9999C41.7501 12.6446 33.3555 4.2499 23.0001 4.2499C12.6448 4.2499 4.25013 12.6446 4.25013 22.9999C4.25013 33.3552 12.6448 41.7499 23.0001 41.7499ZM33.4168 20.9166H25.0835V10.4999H20.9168V25.0832H33.4168V20.9166Z" fill="black"/>
</svg>
