<svg width="71" height="55" viewBox="0 0 71 55" fill="none" xmlns="http://www.w3.org/2000/svg">
<path d="M69.8303 13.6407L69.7428 13.0249L69.6518 13.0469C69.0299 10.0006 67.5972 7.20113 65.5195 4.97221C63.4418 2.7433 60.804 1.1761 57.9114 0.451942C55.0188 -0.272217 51.9895 -0.123737 49.174 0.880205C46.3586 1.88415 43.8721 3.70252 42.0022 6.12492C40.1324 8.54732 38.9555 11.4747 38.6079 14.5685C38.2604 17.6622 38.7562 20.7958 40.0381 23.6067C41.32 26.4175 43.3355 28.7908 45.8515 30.4519C48.3676 32.113 51.2812 32.9939 54.2553 32.9929C55.0358 32.9929 55.7848 32.8682 56.5303 32.7546C56.2888 33.6051 56.0403 34.4702 55.6413 35.2474C55.2423 36.3765 54.6193 37.3553 53.9998 38.3414C53.4818 39.4082 52.5683 40.1303 51.8963 41.0431C51.1928 41.9303 50.2338 42.5205 49.4743 43.2573C48.7288 44.0272 47.7523 44.4121 46.9753 44.9546C46.1633 45.4422 45.4563 45.9811 44.7003 46.2377L42.8138 47.0515L41.1548 47.7737L42.8488 54.8818L44.9383 54.3539C45.6068 54.178 46.4223 53.9727 47.3498 53.7271C48.2983 53.5438 49.3098 53.0416 50.4368 52.5833C51.5463 52.0591 52.8378 51.7109 54.0348 50.8714C55.2388 50.0722 56.6283 49.405 57.8533 48.3346C59.0398 47.2311 60.4713 46.2744 61.5283 44.874C62.6833 43.5616 63.8243 42.1832 64.7098 40.6142C65.7353 39.1186 66.4318 37.4763 67.1668 35.8523C67.8318 34.2283 68.3673 32.5676 68.8048 30.9547C69.6343 27.7214 70.0053 24.6494 70.1488 22.0209C70.2678 19.3888 70.1978 17.2003 70.0508 15.6166C70.0016 14.9553 69.9281 14.2961 69.8303 13.6407ZM31.3303 13.6407L31.2428 13.0249L31.1518 13.0469C30.5299 10.0006 29.0972 7.20113 27.0195 4.97221C24.9418 2.7433 22.304 1.1761 19.4114 0.451942C16.5188 -0.272217 13.4895 -0.123737 10.674 0.880205C7.85859 1.88415 5.37209 3.70252 3.50222 6.12492C1.63235 8.54732 0.455536 11.4747 0.107944 14.5685C-0.239648 17.6622 0.256189 20.7958 1.53808 23.6067C2.81998 26.4175 4.83553 28.7908 7.35154 30.4519C9.86756 32.113 12.7812 32.9939 15.7553 32.9929C16.5358 32.9929 17.2848 32.8682 18.0303 32.7546C17.7888 33.6051 17.5403 34.4702 17.1413 35.2474C16.7423 36.3765 16.1193 37.3553 15.4998 38.3414C14.9818 39.4082 14.0683 40.1303 13.3963 41.0431C12.6928 41.9303 11.7338 42.5205 10.9743 43.2573C10.2288 44.0272 9.25231 44.4121 8.47531 44.9546C7.66331 45.4422 6.95631 45.9811 6.20031 46.2377L4.31381 47.0515C3.26031 47.5024 2.65831 47.7664 2.65831 47.7664L4.35231 54.8745L6.44181 54.3466C7.11031 54.1707 7.92581 53.9654 8.85331 53.7197C9.80181 53.5365 10.8133 53.0342 11.9403 52.576C13.0498 52.0518 14.3413 51.7035 15.5383 50.864C16.7423 50.0649 18.1318 49.3977 19.3568 48.3273C20.5433 47.2238 21.9748 46.267 23.0318 44.8667C24.1868 43.5543 25.3278 42.1759 26.2133 40.6069C27.2388 39.1112 27.9353 37.4689 28.6703 35.8449C29.3353 34.221 29.8708 32.5603 30.3083 30.9473C31.1378 27.714 31.5088 24.642 31.6523 22.0136C31.7713 19.3815 31.7013 17.193 31.5543 15.6093C31.502 14.9505 31.4273 14.2939 31.3303 13.6407Z" fill="#B9CD74"/>
</svg>
