<svg width="91" height="72" viewBox="0 0 91 72" fill="none" xmlns="http://www.w3.org/2000/svg">
<path d="M20.6829 28.4036C19.6713 28.4036 18.7005 28.5654 17.7342 28.7129C18.0472 27.6091 18.3693 26.4863 18.8865 25.4776C19.4036 24.0122 20.2111 22.7419 21.0141 21.4621C21.6855 20.0776 22.8695 19.1403 23.7405 17.9557C24.6524 16.8043 25.8954 16.0383 26.8798 15.082C27.8461 14.0829 29.1117 13.5833 30.1188 12.8792C31.1713 12.2464 32.0877 11.547 33.0676 11.214L35.5127 10.1577L37.663 9.22047L35.4628 0L32.7545 0.68511C31.8881 0.913481 30.8311 1.17991 29.6289 1.49868C28.3995 1.73657 27.0885 2.38838 25.6277 2.98309C24.1851 3.65869 22.5157 4.11543 20.9642 5.20019C19.4036 6.23738 17.6026 7.10328 16.0149 8.49254C14.477 9.92461 12.6216 11.1664 11.2515 12.9886C9.7545 14.6919 8.2756 16.4808 7.12787 18.5171C5.79868 20.4582 4.89591 22.5897 3.94325 24.6973C3.08131 26.805 2.38723 28.9603 1.82017 31.0537C0.745017 35.25 0.264148 39.237 0.0781514 42.6482C-0.0760895 46.0643 0.0146404 48.9047 0.205173 50.96C0.273221 51.9306 0.400243 52.8726 0.490973 53.5244L0.604385 54.3237L0.722334 54.2952C1.5292 58.248 3.38664 61.8805 6.07977 64.7725C8.77291 67.6645 12.1917 69.6978 15.9406 70.6371C19.6896 71.5764 23.6155 71.3835 27.2643 70.0805C30.913 68.7775 34.1355 66.4178 36.5589 63.2743C38.9823 60.1308 40.5076 56.332 40.9584 52.3173C41.4092 48.3027 40.7671 44.2362 39.1062 40.5882C37.4454 36.9403 34.8338 33.8601 31.5735 31.7038C28.3132 29.5475 24.5374 28.4033 20.6829 28.4036ZM70.5844 28.4036C69.5727 28.4036 68.6019 28.5654 67.6357 28.7129C67.9487 27.6091 68.2708 26.4863 68.7879 25.4776C69.3051 24.0122 70.1126 22.7419 70.9156 21.4621C71.587 20.0776 72.771 19.1403 73.642 17.9557C74.5538 16.8043 75.7968 16.0383 76.7812 15.082C77.7475 14.0829 79.0132 13.5833 80.0203 12.8792C81.0728 12.2464 81.9891 11.547 82.969 11.214L85.4142 10.1577L87.5645 9.22047L85.3643 0L82.656 0.68511C81.7895 0.913481 80.7325 1.17991 79.5304 1.49868C78.301 1.73657 76.9899 2.38838 75.5292 2.98309C74.0911 3.66345 72.4171 4.11543 70.8656 5.20495C69.3051 6.24213 67.5041 7.10804 65.9163 8.4973C64.3785 9.92937 62.523 11.1711 61.153 12.9886C59.656 14.6919 58.1771 16.4808 57.0293 18.5171C55.7001 20.4582 54.7974 22.5897 53.8447 24.6973C52.9828 26.805 52.2887 28.9603 51.7216 31.0537C50.6465 35.25 50.1656 39.237 49.9796 42.6482C49.8254 46.0643 49.9161 48.9047 50.1066 50.96C50.1747 51.9306 50.3017 52.8726 50.3924 53.5244L50.5059 54.3237L50.6238 54.2952C51.4307 58.248 53.2881 61.8805 55.9812 64.7725C58.6744 67.6645 62.0932 69.6978 65.8421 70.6371C69.5911 71.5764 73.517 71.3835 77.1657 70.0805C80.8145 68.7775 84.0369 66.4178 86.4603 63.2743C88.8838 60.1308 90.4091 56.332 90.8599 52.3173C91.3107 48.3027 90.6685 44.2362 89.0077 40.5882C87.3469 36.9403 84.7353 33.8601 81.4749 31.7038C78.2146 29.5475 74.4388 28.4033 70.5844 28.4036Z" fill="#B9CD74"/>
</svg>
