<svg width="46" height="45" viewBox="0 0 46 45" fill="none" xmlns="http://www.w3.org/2000/svg">
<path fill-rule="evenodd" clip-rule="evenodd" d="M5.41675 0H41.4167C43.902 0 45.9167 2.01472 45.9167 4.5V40.5C45.9167 42.9853 43.902 45 41.4167 45H5.41675C2.93147 45 0.916748 42.9853 0.916748 40.5V4.5C0.916748 2.01472 2.93147 0 5.41675 0ZM5.41678 4.50006V40.5001H41.4168V4.50006H5.41678ZM21.4661 22.5098H25.6667V35.9999H30.1667V22.5098H34.6272V18.0098H30.1667V15.7499C30.1667 14.5073 31.1741 13.4999 32.4167 13.4999H34.6667V8.99994H32.4167C28.6888 8.99994 25.6667 12.022 25.6667 15.7499V18.0098H21.4661V22.5098Z" fill="black"/>
</svg>
