<svg width="45" height="45" viewBox="0 0 45 45" fill="none" xmlns="http://www.w3.org/2000/svg">
<path fill-rule="evenodd" clip-rule="evenodd" d="M41.8997 5.94145L45 6.33281L43.6064 9.35179C42.9267 10.824 42.2464 12.2963 41.5655 13.7685C41.4847 14.0803 41.3428 14.3537 41.1329 14.7096C41.0452 14.8583 40.7456 15.3313 40.7316 15.354C40.6525 15.4823 40.594 15.5834 40.5519 15.6644V21.3223C40.5519 35.8 27.5894 45 15.348 45C12.8431 45 10.9399 44.8702 8.76067 44.3562C5.17436 43.5103 2.50544 41.8288 1.28414 38.89L0.0267592 35.8643L3.08248 35.5606C5.84682 35.2858 8.24358 34.7166 10.0842 33.9543C5.03108 33.0759 2.19935 30.6771 2.19935 26.1719V23.8032H4.39081C4.87229 23.8032 5.30645 23.761 5.6946 23.6835C1.90219 21.2326 0.00267742 17.3008 0.00267742 11.8473C0.00226302 11.6149 0.00226302 11.6149 0.000969831 11.3663C-0.0132771 8.61754 0.123318 7.14878 0.819491 5.27422C1.26566 4.07283 1.91058 2.96065 2.77855 1.94158L4.43224 0L6.04004 1.98611C11.3385 8.53127 16.5761 12.5021 21.9237 12.9824C21.9466 6.94289 26.1694 2.37235 31.7856 2.37235C34.4039 2.37235 36.7788 3.44655 38.6452 5.3835C39.6667 5.61038 40.7516 5.79653 41.8997 5.94145ZM37.0546 9.8587L36.3828 9.69427L35.9189 9.14395C34.797 7.81337 33.389 7.10979 31.7857 7.10979C28.5797 7.10979 26.3066 9.57893 26.3066 13.0316C26.3066 13.5959 26.2931 13.9505 26.2281 14.4165C25.9686 16.276 25.0036 17.7691 23.0194 17.7691C16.4493 17.7691 10.522 13.9647 4.74213 7.4669C4.44417 8.44596 4.37409 9.45236 4.38387 11.3398C4.38519 11.5922 4.38519 11.5922 4.38565 11.8473C4.38565 16.6985 6.20393 19.352 10.5091 20.8311L12.0368 21.3559V23.0886C12.0368 25.1896 10.1952 27.1674 7.50072 28.0533C8.73589 29.0662 11.262 29.6128 15.3488 29.6128H17.5403V31.9816C17.5403 35.3754 13.9325 38.0326 8.48264 39.4202C10.26 40.0088 12.6265 40.2625 15.348 40.2625C25.4603 40.2625 36.169 32.6621 36.169 21.3222V15.4004C36.169 14.7045 36.3556 14.1004 36.6657 13.4724C36.7869 13.2268 36.9204 12.9927 37.0851 12.7257C37.1161 12.6755 37.2311 12.4933 37.3225 12.3477L37.4962 11.9723C37.7776 11.3639 38.059 10.7555 38.3402 10.1471C37.9031 10.0576 37.4746 9.96149 37.0546 9.8587Z" fill="black"/>
</svg>
