<svg width="45" height="45" viewBox="0 0 45 45" fill="none" xmlns="http://www.w3.org/2000/svg">
<path fill-rule="evenodd" clip-rule="evenodd" d="M31.5 0H13.5C6.04416 0 0 6.04416 0 13.5V31.5C0 38.9558 6.04416 45 13.5 45H31.5C38.9558 45 45 38.9558 45 31.5V13.5C45 6.04416 38.9558 0 31.5 0ZM4.50009 13.5001C4.50009 8.52953 8.52953 4.50009 13.5001 4.50009H31.5001C36.4707 4.50009 40.5001 8.52953 40.5001 13.5001V31.5001C40.5001 36.4707 36.4707 40.5001 31.5001 40.5001H13.5001C8.52953 40.5001 4.50009 36.4707 4.50009 31.5001V13.5001ZM22.5001 33.7501C16.2869 33.7501 11.2501 28.7133 11.2501 22.5001C11.2501 16.2869 16.2869 11.2501 22.5001 11.2501C28.7133 11.2501 33.7501 16.2869 33.7501 22.5001C33.7501 28.7133 28.7133 33.7501 22.5001 33.7501ZM22.4999 29.2499C26.2278 29.2499 29.2499 26.2278 29.2499 22.4999C29.2499 18.772 26.2278 15.7499 22.4999 15.7499C18.772 15.7499 15.7499 18.772 15.7499 22.4999C15.7499 26.2278 18.772 29.2499 22.4999 29.2499ZM36.0001 11.2499C36.0001 12.4925 34.9927 13.4999 33.7501 13.4999C32.5075 13.4999 31.5001 12.4925 31.5001 11.2499C31.5001 10.0073 32.5075 8.99991 33.7501 8.99991C34.9927 8.99991 36.0001 10.0073 36.0001 11.2499Z" fill="black"/>
</svg>
