<svg width="45" height="45" viewBox="0 0 45 45" fill="none" xmlns="http://www.w3.org/2000/svg">
<path fill-rule="evenodd" clip-rule="evenodd" d="M4.5 0H40.5C42.9853 0 45 2.01472 45 4.5V40.5C45 42.9853 42.9853 45 40.5 45H4.5C2.01472 45 0 42.9853 0 40.5V4.5C0 2.01472 2.01472 0 4.5 0ZM4.49996 4.49996V40.5H40.5V4.49996H4.49996ZM24.7501 15.7498C23.5852 15.7498 22.3544 16.1058 21.2674 16.7671L20.2501 15.7498H18.0001V31.4998H22.5001V22.4998C22.5001 21.2043 23.8365 20.2498 24.7501 20.2498H27.0001C27.9137 20.2498 29.2501 21.2043 29.2501 22.4998V31.4998H33.7501V22.4998C33.7501 18.3309 30.1365 15.7498 27.0001 15.7498H24.7501ZM13.5 13.4999C14.7427 13.4999 15.75 12.4926 15.75 11.2499C15.75 10.0073 14.7427 8.99992 13.5 8.99992C12.2574 8.99992 11.25 10.0073 11.25 11.2499C11.25 12.4926 12.2574 13.4999 13.5 13.4999ZM11.25 15.7498V31.4998H15.75V15.7498H11.25Z" fill="black"/>
</svg>
